<?xml version="1.0" encoding="utf-8"?>
<!-- Generator: Adobe Illustrator 27.1.0, SVG Export Plug-In . SVG Version: 6.00 Build 0)  -->
<svg version="1.1" id="Capa_1" xmlns="http://www.w3.org/2000/svg" xmlns:xlink="http://www.w3.org/1999/xlink" x="0px" y="0px"
	 viewBox="0 0 1200 1200" enable-background="new 0 0 1200 1200" xml:space="preserve">
<g>
	<path fill="#67842B" d="M1068.542,50H600H131.458c-39.629,0-65.767,41.254-48.842,77.087l58.091,122.986l114.096,241.556
		l77.687,164.475c0,0,93.212,197.344,93.212,197.344l24.894,52.704c0,0,100.531,212.837,100.562,212.903
		C559.915,1137.594,579.176,1150,600,1150c7.305,0,14.749-1.488,21.475-4.352c12.065-5.137,21.788-14.783,27.367-26.595
		l148.989-315.43l3.197-6.769L969.362,440.47l90.063-190.676l20.12-42.596l37.839-80.111C1134.309,91.254,1108.171,50,1068.542,50z"
		/>
	<path fill="#E73A39" d="M1068.542,50H600H131.458c-39.629,0-65.767,41.254-48.842,77.087l58.091,122.986l114.096,241.556
		l77.687,164.475c0,0,93.212,197.344,93.212,197.344l24.894,52.704c0,0,100.504,212.781,100.562,212.903
		C559.749,1137.242,579.547,1150,600,1150c7.322,0,14.736-1.482,21.475-4.352c12.027-5.121,21.811-14.83,27.368-26.595
		l148.989-315.43l3.197-6.769L969.362,440.47l90.063-190.676l20.12-42.596l37.839-80.111C1134.309,91.254,1108.171,50,1068.542,50z
		 M291.651,435.953c-2.367,0.384-4.626-0.513-6.118-2.183c-6.514-7.321-8.893-12.119-9.494-19.885
		c0.105-11.051,4.49-21.537,6.795-32.28c0.512-2.762,0.513-5.501,2.107-8.322c1.633-2.861,3.321-5.618,11.771-9.388
		c12.924,3.364,14.115,9.056,15.132,18.211c1.104,6.458,2.046,13.025,1.813,19.604C314.388,416.898,309.323,433.052,291.651,435.953
		z M419.852,364.351c-3.328-4.7,2.52-10.297,5.006-13.16c9.274-9.865,21.783-11.333,34.329-12.239
		c6.682-0.997,13.495-1.434,20.226-2.356c9.761-1.946,14.515-3.534,24.811,5.976c0.834,11.874-6.19,17.885-15.777,21.594
		c-10.414,5.572-21.61,9.562-33.119,12.248C441.863,378.914,428.642,376.909,419.852,364.351z M429.884,493.638
		c-1.865-10.742-0.259-26.981,14.281-28.155c1.438,1.546,2.78,3.014,4.242,4.332c5.882,4.749,8.04,10.937,9.886,17.936
		c1.247,3.532,3.038,7.015,4.626,10.581c4.435,10.752,11.233,21.626,14.399,32.836c2.54,9.994,2.849,17.377-1.283,28.384
		c-0.831,2.319-3.156,3.72-5.503,3.453c-16.742-2.323-25.748-14.697-31.503-28.755C434.343,521.122,430.816,507.687,429.884,493.638
		z M512.035,663.894c-6.48,4.971-12.349,10.643-18.278,16.2c-10.097,10.785-19.041,22.416-33.379,28.214
		c-3.599,1.298-11.984,5.626-14.641-0.133c-3.864-8.597-2.67-17.289,0.144-25.712c3.884-9.632,11.045-17.955,19.084-24.428
		c5.881-4.696,12.566-9.639,19.172-13.174c14.454-6.339,32.493-19.008,46.302-4.268C528.623,652.94,521.364,658.256,512.035,663.894
		z M624.67,1048.113c-18.912,7.864-46.709,13.838-57.796-9.228c-2.453-5.092,4.133-9.722,6.872-12.216
		c8.31-6.817,17.97-8.887,28.17-8.777c2.742-0.074,6.503-0.515,9.204-0.749c4.671-0.591,9.438-0.832,14.108-1.664
		c3.108-0.699,5.98-1.905,9.59-1.746c3.635,0.084,7.237,0.329,14.746,6.077C652.907,1037.454,636.918,1041.674,624.67,1048.113z
		 M681.059,863.158c-9.222,2.535-14.871,0.509-21.902-3.034c-7.261-4.618-12.584-11.655-16.15-19.395
		c-4.679-9.395-7.781-19.667-9.069-30.052c-2.377-10.248-1.208-20.344,9.996-25.475c9.039,2.886,11.343,5.665,13.552,8.581
		c2.199,2.725,2.988,5.747,4.313,8.799c2.92,5.602,6.484,10.82,9.761,16.176c1.463,2.266,3.879,5.277,5.417,7.43
		c5.144,6.922,8.273,14.572,8.656,23.685C685.618,853.511,686.441,861.796,681.059,863.158z M681.155,635.537
		c-10.164,4.586-21.025,7.474-32.084,8.97c-13.115,1.143-25.31-2.533-31.832-15.799c-2.532-4.939,3.466-9.889,6.118-12.516
		c7.903-7.152,17.723-9.153,27.773-8.531c0,0,4.567-0.004,4.567-0.004c6.158-0.306,12.395-0.054,18.599-0.311
		c3.116-0.292,6.085-1.083,9.563-0.371c3.503,0.669,6.995,1.508,13.167,8.572C697.396,627.04,690.707,632.668,681.155,635.537z
		 M801.62,344.224c-1.696,11.379-5.304,22.622-10.563,32.893c-4.041,8.443-9.867,16.14-17.708,21.392
		c-7.124,4.111-14.778,6.483-23.284,4.37c-5.882-1.348-4.238-9.956-4.096-13.71c1.17-13.879,9.277-24.08,16.975-34.748
		c3.713-6.117,7.655-12.134,10.894-18.558c3.336-9.598,7.476-16.337,18.571-19.751C803.929,322.236,804.223,333.434,801.62,344.224z
		 M874.591,541.01c-2.464,0.427-7.344,1.611-9.618,1.873c-4.961,0.696-8.195-0.775-12.39-2.726c-2.469-0.969-5.306-1.47-7.991-2.196
		c-2.737-0.708-9.687-2.483-12.373-3.001c-9.434-1.273-18.104-5.295-23.956-13.184c-1.38-1.756-2.913-4.151-4.503-7.012
		c-3.578-7.147,7.506-14.372,11.551-15.876c10.972-4.967,22.981-0.982,33.134,3.999c6.882,3.038,13.297,7.395,19.363,12.574
		C876.272,521.09,882.514,531.355,874.591,541.01z M916.474,406.557c-13.663,1.412-29.777,6.388-36.091-10.441
		c3.345-8.83,6.165-10.939,9.113-12.936c2.757-1.992,5.719-2.557,8.753-3.646c5.582-2.473,10.838-5.583,16.226-8.372
		c8.05-4.864,15.076-10.326,25.091-10.795c4.704-0.51,8.784-0.222,14.179,1.08c2.362,0.483,4.153,2.329,4.637,4.55
		C963.279,391.304,936.596,402.73,916.474,406.557z"/>
	<path fill="#FFCF4A" d="M1068.542,50H600H131.458c-39.629,0-65.767,41.254-48.842,77.087l58.091,122.986l114.096,241.556
		c9.207-3.52,19.095-5.492,29.434-5.438c48.364,0.252,87.573,43.965,87.573,91.38c0,13.555-4.342,23.872-8.408,36.227
		c-4.124,12.531-7.183,22.861-17.183,32.334c-4.127,3.911-8.773,7.2-13.729,9.971l93.212,197.344
		c10.237-38.176,44.751-70.219,86.352-70.002c48.209,0.251,87.293,43.824,87.293,91.089c0,13.511-4.328,23.795-8.381,36.111
		c-4.111,12.491-7.161,22.788-17.128,32.231c-10.014,9.487-22.984,15.492-36.426,18.588c-21.304,4.907-44.267,2.332-63.979-6.965
		l-22.837-48.349c0,0,100.496,212.764,100.562,212.903c8.502,18,28.558,30.946,48.842,30.947c7.286,0,14.768-1.496,21.475-4.352
		c12.027-5.121,21.811-14.831,27.368-26.595l148.989-315.43c-30.668-1.15-60.685-17.475-77.298-43.341
		c-0.581-0.905-1.146-1.822-1.693-2.748c-16.902-28.626-12.268-57.647-4.178-87.976c6.69-25.08,37.232-43.008,60.975-49.586
		c19.526-5.41,40.586-5.009,59.949,0.913c15.432,4.72,27.469,11.706,37.626,23.146l-55.079,116.609L969.362,440.47l90.063-190.676
		l20.12-42.596l37.839-80.111C1134.309,91.254,1108.171,50,1068.542,50z M291.651,435.953c-2.367,0.384-4.626-0.513-6.118-2.183
		c-6.514-7.321-8.893-12.119-9.494-19.885c0.105-11.051,4.49-21.537,6.795-32.28c0.512-2.762,0.513-5.501,2.107-8.322
		c1.633-2.861,3.321-5.618,11.771-9.388c12.924,3.364,14.115,9.056,15.132,18.211c1.104,6.458,2.046,13.025,1.813,19.604
		C314.388,416.898,309.323,433.052,291.651,435.953z M419.852,364.351c-3.328-4.7,2.52-10.297,5.006-13.16
		c9.274-9.865,21.783-11.333,34.329-12.239c6.682-0.997,13.495-1.434,20.226-2.356c9.761-1.946,14.515-3.534,24.811,5.976
		c0.834,11.874-6.19,17.885-15.777,21.594c-10.414,5.572-21.61,9.562-33.119,12.248
		C441.863,378.914,428.642,376.909,419.852,364.351z M429.884,493.638c-1.865-10.742-0.259-26.981,14.281-28.155
		c1.438,1.546,2.78,3.014,4.242,4.332c5.882,4.749,8.04,10.937,9.886,17.936c1.247,3.532,3.038,7.015,4.626,10.581
		c4.435,10.752,11.233,21.626,14.399,32.836c2.54,9.994,2.849,17.377-1.283,28.384c-0.831,2.319-3.156,3.72-5.503,3.453
		c-16.742-2.323-25.748-14.697-31.503-28.755C434.343,521.122,430.816,507.687,429.884,493.638z M512.035,663.894
		c-6.48,4.971-12.349,10.643-18.278,16.2c-10.097,10.785-19.041,22.416-33.379,28.214c-3.599,1.298-11.984,5.626-14.641-0.133
		c-3.864-8.597-2.67-17.289,0.144-25.712c3.884-9.632,11.045-17.955,19.084-24.428c5.881-4.696,12.566-9.639,19.172-13.174
		c14.454-6.339,32.493-19.008,46.302-4.268C528.623,652.94,521.364,658.256,512.035,663.894z M624.67,1048.113
		c-18.912,7.864-46.709,13.838-57.796-9.228c-2.453-5.092,4.133-9.722,6.872-12.216c8.31-6.817,17.97-8.887,28.17-8.777
		c2.742-0.074,6.503-0.515,9.204-0.749c4.671-0.591,9.438-0.832,14.108-1.664c3.108-0.699,5.98-1.905,9.59-1.746
		c3.635,0.084,7.237,0.329,14.746,6.077C652.907,1037.454,636.918,1041.674,624.67,1048.113z M681.059,863.158
		c-9.222,2.535-14.871,0.509-21.902-3.034c-7.261-4.618-12.584-11.655-16.15-19.395c-4.679-9.395-7.781-19.667-9.069-30.052
		c-2.377-10.248-1.208-20.344,9.996-25.475c9.039,2.886,11.343,5.665,13.552,8.581c2.199,2.725,2.988,5.747,4.313,8.799
		c2.92,5.602,6.484,10.82,9.761,16.176c1.463,2.266,3.879,5.277,5.417,7.43c5.144,6.922,8.273,14.572,8.656,23.685
		C685.618,853.511,686.441,861.796,681.059,863.158z M681.155,635.537c-10.164,4.586-21.025,7.474-32.084,8.97
		c-13.115,1.143-25.31-2.533-31.832-15.799c-2.532-4.939,3.466-9.889,6.118-12.516c7.903-7.152,17.723-9.153,27.773-8.531
		c0,0,4.567-0.004,4.567-0.004c6.158-0.306,12.395-0.054,18.599-0.311c3.116-0.292,6.085-1.083,9.563-0.371
		c3.503,0.669,6.995,1.508,13.167,8.572C697.396,627.04,690.707,632.668,681.155,635.537z M656.799,531.735
		c-43.46,17.222-92.651-4.048-109.872-47.508c-17.221-43.459,4.049-92.651,47.508-109.872c43.46-17.221,92.651,4.049,109.873,47.508
		C721.528,465.322,700.258,514.513,656.799,531.735z M801.62,344.224c-1.696,11.379-5.304,22.622-10.563,32.893
		c-4.041,8.443-9.867,16.14-17.708,21.392c-7.124,4.111-14.778,6.483-23.284,4.37c-5.882-1.348-4.238-9.956-4.096-13.71
		c1.17-13.879,9.277-24.08,16.975-34.748c3.713-6.117,7.655-12.134,10.894-18.558c3.336-9.598,7.476-16.337,18.571-19.751
		C803.929,322.236,804.223,333.434,801.62,344.224z M874.591,541.01c-2.464,0.427-7.344,1.611-9.618,1.873
		c-4.961,0.696-8.195-0.775-12.39-2.726c-2.469-0.969-5.306-1.47-7.991-2.196c-2.737-0.708-9.687-2.483-12.373-3.001
		c-9.434-1.273-18.104-5.295-23.956-13.184c-1.38-1.756-2.913-4.151-4.503-7.012c-3.578-7.147,7.506-14.372,11.551-15.876
		c10.972-4.967,22.981-0.982,33.134,3.999c6.882,3.038,13.297,7.395,19.363,12.574C876.272,521.09,882.514,531.355,874.591,541.01z
		 M916.474,406.557c-13.663,1.412-29.777,6.388-36.091-10.441c3.345-8.83,6.165-10.939,9.113-12.936
		c2.757-1.992,5.719-2.557,8.753-3.646c5.582-2.473,10.838-5.583,16.226-8.372c8.05-4.864,15.076-10.326,25.091-10.795
		c4.704-0.51,8.784-0.222,14.179,1.08c2.362,0.483,4.153,2.329,4.637,4.55C963.279,391.304,936.596,402.73,916.474,406.557z"/>
	<path fill="#E73A39" d="M1068.542,50H600H131.458c-39.629,0-65.767,41.254-48.842,77.087l58.091,122.986
		c12.992,5.165,25.998,14.66,39.811,24.761c25.31,18.51,53.996,39.487,90.435,39.487c41.62,0,62.729-15.526,83.144-30.543
		c20.946-15.406,40.731-29.956,81.365-29.956c40.636,0,60.421,14.55,81.368,29.956c20.416,15.016,41.526,30.543,83.148,30.543
		c41.62,0,62.731-15.526,83.145-30.543c20.946-15.406,40.731-29.956,81.365-29.956c40.641,0,60.429,14.553,81.378,29.959
		c20.417,15.013,41.531,30.54,83.155,30.54c36.914,0,64.231-20.549,88.334-38.681c14.44-10.863,27.944-21.008,42.072-25.846
		l20.12-42.596l37.839-80.111C1134.309,91.254,1108.171,50,1068.542,50z"/>
	<path fill="#DD913E" d="M106.446,177.538h987.109l23.83-50.451C1134.309,91.254,1108.171,50,1068.542,50H600H131.458
		c-39.629,0-65.767,41.254-48.842,77.087L106.446,177.538z"/>
</g>
</svg>
